<svg width="9" height="13" viewBox="0 0 9 13" fill="none" xmlns="http://www.w3.org/2000/svg">
<path d="M2.85254 8.67057H5.53436V8.39784C5.53436 7.49443 5.96049 7.03988 6.78436 6.55693C7.89231 5.9092 8.64799 5.0967 8.64799 3.71602C8.64799 1.57966 6.84686 0.511475 4.42072 0.511475C2.21049 0.511475 0.375266 1.55693 0.352539 4.05693H3.26163C3.26163 3.40352 3.78436 2.94329 4.39799 2.94329C4.96618 2.94329 5.42072 3.32966 5.42072 3.89784C5.42072 4.5342 4.86958 4.92625 4.14799 5.39784C3.3014 5.94898 2.85254 6.52852 2.85254 8.39784V8.67057ZM4.2389 12.4887C5.07413 12.4887 5.81845 11.7842 5.82981 10.8978C5.81845 10.0342 5.07413 9.32966 4.2389 9.32966C3.35822 9.32966 2.63663 10.0342 2.64799 10.8978C2.63663 11.7842 3.35822 12.4887 4.2389 12.4887Z" fill="#3F4E65"/>
</svg>
