<svg width="16" height="16" viewBox="0 0 16 16" fill="none" xmlns="http://www.w3.org/2000/svg">
<path fill-rule="evenodd" clip-rule="evenodd" d="M7.50059 1.6501C5.94907 1.6501 4.4611 2.26644 3.36401 3.36352C2.26692 4.46061 1.65059 5.94858 1.65059 7.5001C1.65059 9.05161 2.26692 10.5396 3.36401 11.6367C4.4611 12.7338 5.94907 13.3501 7.50059 13.3501C9.0521 13.3501 10.5401 12.7338 11.6372 11.6367C12.7342 10.5396 13.3506 9.05161 13.3506 7.5001C13.3506 5.94858 12.7342 4.46061 11.6372 3.36352C10.5401 2.26644 9.0521 1.6501 7.50059 1.6501ZM2.44477 2.44428C3.78566 1.1034 5.60429 0.350098 7.50059 0.350098C9.39688 0.350098 11.2155 1.1034 12.5564 2.44428C13.8973 3.78517 14.6506 5.6038 14.6506 7.5001C14.6506 9.17723 14.0613 10.7936 12.9975 12.0725L15.99 15.0703L15.07 15.9887L12.0788 12.9922C10.799 14.0591 9.18026 14.6501 7.50059 14.6501C5.60429 14.6501 3.78566 13.8968 2.44477 12.5559C1.10389 11.215 0.350586 9.3964 0.350586 7.5001C0.350586 5.6038 1.10389 3.78517 2.44477 2.44428Z" fill="white"/>
</svg>
