<svg width="20" height="16" viewBox="0 0 20 16" fill="none" xmlns="http://www.w3.org/2000/svg">
<g opacity="0.23" clip-path="url(#clip0_42_442)">
<g filter="url(#filter0_d_42_442)">
<path d="M13.303 8.00018C12.7749 8.00018 12.278 7.71893 12.0092 7.26893L9.99986 3.93768L7.99361 7.26893C7.72173 7.72205 7.22486 8.0033 6.69673 8.0033C6.55611 8.0033 6.41548 7.98455 6.28111 7.94393L1.99986 6.71893V12.2814C1.99986 12.7408 2.31236 13.1408 2.75611 13.2502L9.51236 14.9408C9.83111 15.0189 10.1655 15.0189 10.4811 14.9408L17.2436 13.2502C17.6874 13.1377 17.9999 12.7377 17.9999 12.2814V6.71893L13.7186 7.9408C13.5842 7.98143 13.4436 8.00018 13.303 8.00018ZM19.9467 4.49393L18.3374 1.28143C18.2405 1.08768 18.0311 0.975179 17.8155 1.0033L9.99986 2.00018L12.8655 6.7533C12.9842 6.95018 13.2217 7.04393 13.4436 6.98143L19.628 5.2158C19.9374 5.12518 20.0874 4.78143 19.9467 4.49393V4.49393ZM1.66236 1.28143L0.0529828 4.49393C-0.0907672 4.78143 0.0623578 5.12518 0.368608 5.21268L6.55298 6.9783C6.77486 7.0408 7.01236 6.94705 7.13111 6.75018L9.99986 2.00018L2.18111 1.0033C1.96548 0.978304 1.75923 1.08768 1.66236 1.28143V1.28143Z" fill="#3F4E65"/>
<path d="M9.69659 2.46556L9.71721 2.46819L9.70768 2.48395L9.69659 2.46556ZM9.69659 2.46556L9.57166 2.25834L9.41588 1.99995M9.69659 2.46556L9.17485 2.39904L9.41588 1.99995M9.41588 1.99995L9.45751 1.93103L9.3674 1.91954L9.41588 1.99995ZM6.68879 6.4971C6.68871 6.49708 6.68863 6.49706 6.68855 6.49703L6.55298 6.9783L6.69025 6.49751L6.68879 6.4971ZM0.500183 4.71756C0.500187 4.71755 0.500192 4.71755 0.500196 4.71754L0.0530977 4.49399L0.500022 4.71788L0.500183 4.71756ZM2.1224 1.49987C2.12276 1.4999 2.12314 1.49993 2.12352 1.49998L2.18111 1.0033L2.11787 1.49929L2.1224 1.49987ZM0.368653 5.21252L0.505968 4.73192L0.505872 4.73189L0.368653 5.21252ZM13.2936 6.49506L10.8242 2.39909L17.8787 1.49929L17.8801 1.4991C17.8816 1.49891 17.8832 1.49903 17.8854 1.50018C17.8876 1.5014 17.8891 1.50303 17.8901 1.50504L17.8903 1.50538L19.4976 4.71362C19.4977 4.71392 19.4979 4.7142 19.498 4.71448C19.4997 4.71818 19.4998 4.7202 19.4998 4.7212C19.4998 4.72283 19.4995 4.72501 19.4984 4.72737C19.4974 4.72972 19.4961 4.73133 19.495 4.73232C19.4943 4.73288 19.4927 4.73433 19.4881 4.73575C19.4879 4.73582 19.4877 4.7359 19.4874 4.73597L13.308 6.50016C13.308 6.50018 13.3079 6.5002 13.3078 6.50022C13.3055 6.50083 13.3027 6.50085 13.2994 6.49954C13.296 6.49818 13.2944 6.49642 13.2936 6.49506ZM2.87748 12.7651L2.87577 12.7647C2.65672 12.7107 2.49986 12.5121 2.49986 12.2814V7.38206L6.14028 8.4237C6.32491 8.47907 6.51338 8.5033 6.69673 8.5033C7.40036 8.5033 8.05987 8.13004 8.42214 7.52653C8.42221 7.52641 8.42229 7.52629 8.42235 7.52618L10.0002 4.90628L11.58 7.5253C11.5801 7.52561 11.5803 7.52592 11.5805 7.52624C11.9403 8.12783 12.6004 8.50018 13.303 8.50018C13.4863 8.50018 13.6747 8.47596 13.8593 8.42062L17.4999 7.3816V12.2814C17.4999 12.5072 17.3444 12.7085 17.1214 12.7653C17.1212 12.7654 17.121 12.7655 17.1207 12.7655L10.361 14.4555C10.3608 14.4555 10.3606 14.4555 10.3604 14.4556C10.1246 14.5139 9.87296 14.5142 9.63256 14.4555C9.63216 14.4554 9.63177 14.4553 9.63138 14.4552L2.87748 12.7651Z" stroke="black"/>
</g>
</g>
<defs>
<filter id="filter0_d_42_442" x="-4.00146" y="0.999023" width="28.0012" height="22.0005" filterUnits="userSpaceOnUse" color-interpolation-filters="sRGB">
<feFlood flood-opacity="0" result="BackgroundImageFix"/>
<feColorMatrix in="SourceAlpha" type="matrix" values="0 0 0 0 0 0 0 0 0 0 0 0 0 0 0 0 0 0 127 0" result="hardAlpha"/>
<feOffset dy="4"/>
<feGaussianBlur stdDeviation="2"/>
<feComposite in2="hardAlpha" operator="out"/>
<feColorMatrix type="matrix" values="0 0 0 0 0 0 0 0 0 0 0 0 0 0 0 0 0 0 0.25 0"/>
<feBlend mode="normal" in2="BackgroundImageFix" result="effect1_dropShadow_42_442"/>
<feBlend mode="normal" in="SourceGraphic" in2="effect1_dropShadow_42_442" result="shape"/>
</filter>
<clipPath id="clip0_42_442">
<rect width="20" height="16" fill="white"/>
</clipPath>
</defs>
</svg>
