<svg width="23" height="13" viewBox="0 0 23 13" fill="none" xmlns="http://www.w3.org/2000/svg">
<path fill-rule="evenodd" clip-rule="evenodd" d="M0.775864 5.81035C1.15675 5.41042 1.78973 5.39498 2.18966 5.77586L6.68431 10.0565L8.62243 7.8415C8.98611 7.42586 9.61787 7.38374 10.0335 7.74743C10.4491 8.11111 10.4913 8.74287 10.1276 9.15851L7.50258 12.1585C7.32311 12.3636 7.06771 12.4866 6.79546 12.499C6.52321 12.5114 6.2577 12.4121 6.06035 12.2241L0.810347 7.22414C0.410416 6.84325 0.394978 6.21028 0.775864 5.81035Z" fill="white"/>
<path fill-rule="evenodd" clip-rule="evenodd" d="M22.1585 0.747437C22.5741 1.11112 22.6163 1.74288 22.2526 2.15852L13.5026 12.1585C13.3231 12.3636 13.0677 12.4866 12.7955 12.499C12.5232 12.5114 12.2577 12.4121 12.0603 12.2242L6.81035 7.22415C6.41042 6.84327 6.39498 6.21029 6.77586 5.81036C7.15675 5.41043 7.78973 5.39499 8.18966 5.77588L12.6843 10.0565L20.7474 0.841509C21.1111 0.425872 21.7429 0.383755 22.1585 0.747437Z" fill="white"/>
<path fill-rule="evenodd" clip-rule="evenodd" d="M16.1585 0.747437C16.5742 1.11112 16.6163 1.74288 16.2526 2.15852L12.7526 6.15852C12.3889 6.57415 11.7571 6.61627 11.3415 6.25259C10.9259 5.88891 10.8838 5.25715 11.2474 4.84151L14.7474 0.841509C15.1111 0.425872 15.7429 0.383755 16.1585 0.747437Z" fill="white"/>
</svg>
