<svg width="101" height="17" viewBox="0 0 101 17" fill="none" xmlns="http://www.w3.org/2000/svg">
<path d="M8.87066 0.0776367C12.1621 0.0776367 15.7282 1.87698 16.3406 6.10995H12.3467C11.7794 4.49953 10.5727 3.77079 8.87066 3.77079C6.48874 3.77079 4.92181 5.57014 4.92181 8.19269C4.92181 10.5318 6.46622 12.5696 8.87066 12.5966C10.5997 12.5966 11.982 11.7329 12.4143 10.0325H16.4081C15.8183 14.5309 12.2567 16.2897 8.87066 16.2897C4.81824 16.3122 0.743308 13.5907 0.720795 8.19269C0.698281 2.79465 4.83175 0.0776367 8.87066 0.0776367Z" fill="#3F4E65"/>
<path d="M22.7659 15.6956L25.2514 10.5765L19.9067 0.851029V0.239258H24.4454L27.4442 6.08713H27.5568L30.2809 0.239258H34.7071V0.851029L27.147 16.1455H22.7659V15.6956Z" fill="#3F4E65"/>
<path d="M39.7049 16.1455H35.729V15.5562L42.8793 0.0683594H44.6128L51.8171 15.5427V16.1455H47.8412L43.7573 6.84739L39.7049 16.1455Z" fill="#3F4E65"/>
<path d="M53.6675 3.88751V0.257324H65.469V3.88751H61.5877V16.1456H57.5713V3.88751H53.6675Z" fill="#3F4E65"/>
<path d="M78.5002 14.1347H72.2369L71.3049 16.1455H67.3335V15.5562L74.4838 0.0683594H76.2308L83.4036 15.5562V16.1455H79.4322L78.5002 14.1347ZM75.3483 6.48752L73.5472 10.662H77.1809L75.3483 6.48752Z" fill="#3F4E65"/>
<path d="M101 16.1456H96.8439V9.75787H91.9405V16.1456H87.7891V0.257324H91.9405V6.01524H96.8439V0.257324H101V16.1456Z" fill="#3F4E65"/>
</svg>
